<svg width="512" height="480" viewBox="0 0 512 480" fill="none" xmlns="http://www.w3.org/2000/svg">
<path d="M287.653 228.814C323.869 224.267 359.581 238.842 382.484 267.055C384.165 269.126 387.165 269.579 389.319 268.006C399.694 260.425 408.626 250.954 415.63 240.021C459.278 171.92 410.808 80 328 80C273.964 80 229.426 121.411 224.469 174.167C224.269 176.298 225.446 178.333 227.404 179.198C250.009 189.196 269.321 205.669 282.887 226.612C283.915 228.201 285.776 229.049 287.653 228.814V228.814Z" fill="white"/>
<path d="M328 64C336.837 64 344 56.836 344 48V16C344 7.164 336.837 0 328 0C319.163 0 312 7.164 312 16V48C312 56.836 319.163 64 328 64Z" fill="white"/>
<path d="M496 168H464C455.163 168 448 175.164 448 184C448 192.836 455.163 200 464 200H496C504.837 200 512 192.836 512 184C512 175.164 504.837 168 496 168Z" fill="white"/>
<path d="M435.48 268.853C429.233 262.605 419.102 262.605 412.853 268.853C406.604 275.102 406.604 285.232 412.853 291.48L435.48 314.107C438.604 317.232 442.698 318.794 446.793 318.794C460.921 318.794 468.214 301.587 458.106 291.481L435.48 268.853Z" fill="white"/>
<path d="M220.52 99.147C226.768 105.396 236.898 105.396 243.147 99.147C249.396 92.898 249.396 82.768 243.147 76.52L220.52 53.893C214.274 47.645 204.143 47.645 197.893 53.893C191.644 60.142 191.644 70.272 197.893 76.52L220.52 99.147Z" fill="white"/>
<path d="M424.167 103.833C428.262 103.833 432.356 102.271 435.48 99.1464L458.107 76.5194C464.356 70.2704 464.356 60.1404 458.107 53.8924C451.859 47.6444 441.728 47.6434 435.48 53.8924L412.854 76.5204C402.744 86.6294 410.041 103.833 424.167 103.833V103.833Z" fill="white"/>
<path d="M372.53 348C384.865 287.226 321.219 240.37 267.245 268.066C255.382 228.917 219.022 200.417 176 200.417C120.166 200.417 76.086 248.236 81.05 304.273C35.698 307.816 0 345.738 0 392C0 440.466 39.265 480 88 480H374C410.451 480 440 450.451 440 414C440 379.162 412.587 348 372.53 348Z" fill="white"/>
</svg>
